<?xml version="1.0" encoding="UTF-8"?><svg id="Layer_1" xmlns="http://www.w3.org/2000/svg" viewBox="0 0 643.82 248.12"><defs><style>.cls-1{fill:#10B981;}</style></defs><path class="cls-1" d="M587.94,178.86c40.05-41.58,66.25-103.72,50.96-117.94-13.28-12.35-47.3,21.29-105.96,32.94-64.04,12.71-121.61-7.9-158.7-26.02,11.52,12.08,47.36,46.57,105.67,56.4,68.33,11.51,119.94-18.85,132.62-26.82-25.76,33.83-69.98,80.64-130.6,87.44C340.22,200.76,256.78-18.67,143.94,1.86,36.51,21.4-8.83,242.29,2.08,247.53c10.48,5.03,67.21-191.66,169.9-197.41,106.23-5.95,152.55,198.52,285.95,194.74,68.28-1.93,121.67-57.36,130-66Z"/></svg>